<?xml version="1.0" encoding="utf-8"?>
<!-- Generator: Adobe Illustrator 16.0.0, SVG Export Plug-In . SVG Version: 6.00 Build 0)  -->
<!DOCTYPE svg PUBLIC "-//W3C//DTD SVG 1.1//EN" "http://www.w3.org/Graphics/SVG/1.1/DTD/svg11.dtd">
<svg version="1.1" id="logotipo-camilagroch" xmlns="http://www.w3.org/2000/svg" xmlns:xlink="http://www.w3.org/1999/xlink"
	 x="0px" y="0px" width="566.833px" height="113.271px" viewBox="0 0 566.833 113.271" enable-background="new 0 0 566.833 113.271"
	 xml:space="preserve">
<g id="logotipo">
	<path fill="none" d="M165.369,43.958c0-0.005,0-0.011,0-0.016c-0.001,0.005-0.001,0.011-0.002,0.016
		C165.367,43.958,165.368,43.958,165.369,43.958z"/>
	<path fill="none" d="M303.611,69.29c0.001,0.012,0.001,0.023,0.002,0.035c0-0.011,0-0.023,0-0.034
		C303.612,69.29,303.612,69.29,303.611,69.29z"/>
	<path fill="#803593" d="M567.296,68.526c-0.41-3.73-0.642-7.48-0.947-11.222c-1.064-13.056-2.203-26.106-3.161-39.169
		c-0.431-5.88-1.362-11.732-1.154-17.655c-1.92,0-3.84,0-5.76,0c-0.391,0.772-1.122,0.432-1.702,0.48
		c-6.529,0.537-13.062,1.032-19.591,1.566c-18.709,1.531-37.416,3.092-56.126,4.607c-16.88,1.366-33.765,2.671-50.645,4.033
		c-25.24,2.036-50.478,4.118-75.722,6.104c-1.739,0.137-2.111,0.774-2.073,2.338c0.083,3.436-0.003,6.876-0.001,10.315
		c0.01,19.431,0.025,38.862,0.039,58.293c0.117,0.002,0.231-0.011,0.345-0.04l0,0c0.001-18.397,0.037-36.794-0.044-55.19
		c-0.009-2.172,0.499-2.887,2.774-2.755c10.271,0.594,20.553,1.018,30.83,1.506c9.879,0.469,19.759,0.945,29.638,1.412
		c10.438,0.494,20.877,0.976,31.314,1.472c9.957,0.472,19.914,0.958,29.871,1.432c10.196,0.486,20.395,0.949,30.59,1.451
		c8.68,0.427,17.355,0.948,26.037,1.299c1.747,0.07,1.927,0.808,1.832,2.217c-0.323,4.851-0.577,9.705-0.854,14.558
		c-0.34,5.968-0.23,11.963-1.055,17.902c0.118,0.119,0.237,0.239,0.355,0.358c0.465-0.108,0.924-0.277,1.394-0.314
		c10.511-0.84,21.019-1.722,31.536-2.444C566.918,70.948,567.502,70.4,567.296,68.526z"/>
	<path fill="#13A79D" d="M33.089,45.688c-0.144-1.557,0.348-2.038,1.925-2.149c7.543-0.535,15.077-1.205,22.612-1.838
		c10.788-0.907,21.573-1.845,32.361-2.731c8.567-0.704,17.14-1.349,25.709-2.019c4.288-0.335,8.575-0.667,12.862-1
		c0,0,0.001,0,0.001,0c0.203-5.531-0.065-11.147,3.263-16.156c-2.554-0.143-4.784-0.283-7.014-0.39
		c-20.18-0.964-40.36-1.935-60.542-2.88c-19.388-0.908-38.779-1.747-58.162-2.748c-1.977-0.102-2.373,0.38-2.455,2.196
		c-0.874,19.309-1.826,38.614-2.757,57.92l0,0h0c0.007,0.8,0.014,1.6,0.021,2.399C0.908,77.24,0.9,78.188,0.893,79.137c0,0,0,0,0,0
		c0,0,0,0,0,0c-0.026,0.837,0.404,1.751-0.413,2.456c0,0.96,0,1.92,0,2.88c0.548-0.041,1.098-0.138,1.643-0.114
		c11.39,0.501,22.779,1.017,34.168,1.529c-0.702-8.797-1.406-17.595-2.103-26.393C33.823,54.893,33.514,50.285,33.089,45.688z"/>
	<path fill="#8BD3CE" d="M0.893,79.138C0.893,79.138,0.893,79.138,0.893,79.138c0.008-0.949,0.015-1.897,0.022-2.846
		c-0.145,0.019-0.29,0.026-0.435,0.021c0,0.96,0,1.92,0,2.88C0.617,79.169,0.755,79.151,0.893,79.138z"/>
	<path fill="#4DBCB5" d="M0.893,79.138C0.893,79.138,0.893,79.138,0.893,79.138c-0.138,0.013-0.276,0.032-0.413,0.056
		c0,0.8,0,1.6,0,2.4C1.297,80.889,0.867,79.975,0.893,79.138z"/>
	<path fill="#C6E9E7" d="M0.915,76.292c-0.007-0.8-0.014-1.6-0.021-2.399h0c-0.138,0.009-0.275,0.016-0.414,0.021c0,0.8,0,1.6,0,2.4
		C0.625,76.318,0.771,76.311,0.915,76.292z"/>
	<path fill="#1A2C5E" d="M76.771,87.83c8.439,0.345,16.88,0.633,25.316,1.025c8.828,0.411,17.651,0.918,26.477,1.383
		c-0.001-18.097-0.002-36.193-0.003-54.289c0,0,0,0-0.001,0c-4.287,0.333-8.574,0.666-12.862,1
		c-8.57,0.67-17.142,1.315-25.709,2.019c-10.789,0.886-21.574,1.824-32.361,2.731c-7.535,0.633-15.069,1.303-22.612,1.838
		c-1.578,0.111-2.069,0.593-1.925,2.149c0.425,4.598,0.733,9.206,1.098,13.809c0.697,8.798,1.401,17.595,2.103,26.393l0.15,0.109
		c9.076,0.176,18.135,0.702,27.195,1.25C68.01,87.513,72.392,87.651,76.771,87.83z"/>
	<path fill="#13A79D" d="M523.925,74.311c-15.627,1.383-31.268,2.614-46.906,3.86c-10.957,0.873-21.921,1.647-32.876,2.538
		c-14.686,1.195-29.364,2.483-44.049,3.686c-8.893,0.729-17.795,1.348-26.688,2.061c-6.904,0.553-13.803,1.181-20.705,1.757
		c-0.628,0.053-1.268-0.02-1.902-0.034v-0.001l0,0c-0.113,0.029-0.228,0.042-0.345,0.04c-0.003,3.52,0.038,7.04-0.03,10.559
		c-0.026,1.396,0.145,2.074,1.887,2.152c22.909,1.027,45.813,2.162,68.72,3.259c26.896,1.287,53.792,2.559,80.688,3.849
		c8.458,0.405,16.916,0.836,25.372,1.282c3.237,0.17,3.22,0.204,3.348-2.929c0.078-1.915,0.229-3.827,0.324-5.742
		c0.447-8.937,0.886-17.873,1.327-26.809c-0.118-0.12-0.237-0.239-0.355-0.358C529.191,74.3,526.522,74.081,523.925,74.311z"/>
	<path fill="#803593" d="M129.147,97.871c-0.306-2.53-0.397-5.087-0.583-7.633l0,0c-8.825-0.465-17.648-0.972-26.477-1.383
		c-8.436-0.393-16.877-0.681-25.316-1.025c-4.378-0.179-8.761-0.317-13.135-0.582c-9.06-0.548-18.119-1.074-27.195-1.25
		c0.655,8.433,1.376,16.861,1.915,25.301c0.124,1.937,0.665,2.641,2.641,2.478c9.225-0.764,18.458-1.41,27.685-2.147
		c17.1-1.366,34.196-2.763,51.293-4.153c4.386-0.356,8.769-0.74,13.6-1.148C130.598,103.915,129.528,101.028,129.147,97.871z"/>
	<path fill="#1A2C5E" d="M303.611,69.29c0.001,0,0.001,0,0.002,0c0,0.011,0,0.023,0,0.034c0.401,6.811,0.196,13.625,0.106,20.434
		c-0.03,2.289,0.338,3.188,2.857,2.559c1.894-0.474,3.97,0.038,5.885-0.667c0.014-20.434,0.013-40.867,0.071-61.299
		c0.005-1.555-0.447-2.146-2.023-2.069c-2.387,0.117-4.775-0.016-7.141-0.419c0.064,8.473,0.069,16.947,0.239,25.418
		c0.04,1.953-0.585,2.464-2.431,2.353c-2.471-0.149-4.973-0.211-7.431,0.014c-2.356,0.215-2.929-0.568-2.872-2.878
		c0.167-6.713,0.07-13.434,0.047-20.151c-0.006-1.72-0.203-3.417-2.086-4.214c-5.152-2.179-8.911,0.218-9.019,5.736
		c-0.003,0.16-0.001,0.319-0.001,0.48c0,18.633-0.004,37.267,0.009,55.9c0.001,1.351-0.081,2.729,0.553,4.001
		c3.464-0.306,6.928-0.611,10.392-0.916v0.001l0,0c0.055-0.954,0.156-1.908,0.158-2.861c0.014-6.628-0.005-13.256,0.024-19.883
		c0.003-0.706-0.41-1.926,0.783-1.904C295.693,69.03,299.678,68.392,303.611,69.29c0,0,0-0.001,0-0.002
		C303.611,69.288,303.611,69.289,303.611,69.29z"/>
	<path fill="#1A2C5E" d="M165.595,57.765c0.031,10.632,0.072,21.266-0.025,31.897c-0.019,2.029,0.607,2.687,2.576,2.527
		c1.666-0.135,3.389-0.181,5.022,0.102c1.482,0.256,1.611-0.335,1.598-1.482c-0.032-3.037-0.01-6.076-0.01-9.113
		c-0.001-16.469-0.003-32.937-0.004-49.406c0,0,0,0,0,0h-0.001c-2.465,0.141-4.93,0.282-7.395,0.42
		c-1.391,0.077-1.868,0.779-1.85,2.184c0.039,3.016,0.309,6.042-0.138,9.049c0,0.005,0,0.01,0,0.016c0,0-0.001,0-0.002,0
		c0,0.001,0,0.003,0,0.004c0-0.001,0-0.002,0-0.003c-3.553,0.605-7.139,0.062-10.698,0.304c-1.556,0.106-1.848-0.52-1.821-1.912
		c0.052-2.771-0.076-5.544-0.129-8.317c-3.673,0.208-7.347,0.417-11.021,0.626c-0.001,0-0.001,0-0.002,0
		c-0.036,13.1-0.087,26.199-0.1,39.298c-0.006,5.589,0.069,11.178,0.107,16.767c3.756,0.606,7.544,0.491,11.327,0.5l0,0
		c0.026-0.796,0.073-1.592,0.074-2.388c0.005-10.531,0.044-21.063-0.039-31.592c-0.013-1.682,0.407-2.172,2.095-2.09
		c3.342,0.164,6.695,0.097,10.043,0.126C165.984,56.003,165.592,56.94,165.595,57.765z"/>
	<path fill="#1A2C5E" d="M245.32,90.337c0.03-18.463,0.022-36.926,0.011-55.39c-0.001-1.195-0.022-2.407-0.215-3.582
		c-0.164-1-0.354-2.118-1.443-2.621c-2.523-1.165-5.168-1.257-7.653-0.134c-1.987,0.899-1.868,3.001-1.869,4.839
		c-0.015,19.422-0.016,38.845,0.007,58.268c0.002,1.323-0.151,2.745,0.96,3.816c3.068,0.021,6.137,0.044,9.205,0.066
		C245.646,94.035,245.317,92.13,245.32,90.337z"/>
	<polygon fill="#1A2C5E" points="244.321,95.601 244.321,95.601 244.321,95.601 	"/>
	<path fill="#1A2C5E" d="M221.228,28.334c-2.995,0.299-5.99,0.597-8.984,0.895c0.099,5.021,0.203,10.042,0.297,15.063
		c0.114,6.073-1.189,11.312-7.902,13.348c-0.054,0.017-0.079,0.133-0.229,0.404c4.518,0.975,7.054,3.849,7.688,8.336
		c0.267,1.889,0.406,3.81,0.426,5.718c0.076,7.339,0.08,14.68,0.111,22.02c2.831,0.481,5.687,0.487,8.545,0.438
		C220.955,72.482,220.907,50.408,221.228,28.334z"/>
	<path fill="#1A2C5E" d="M258.139,27.738c0.076,1.835,0.211,3.67,0.221,5.505c0.111,20.942,0.215,41.884-0.071,62.825
		c2.909-0.106,5.86,0.164,8.659-0.946c0,0.001,0.001,0.002,0.001,0.002l0,0c0.077-22.93-0.624-45.864,0.398-68.788
		c-2.435-0.147-4.877-0.214-7.299-0.472C258.486,25.697,258.127,26.458,258.139,27.738z"/>
	<path fill="#1A2C5E" d="M335.82,55.4c-2.79,0.079-5.585,0.072-8.374,0.002c-1.218-0.03-1.666,0.32-1.657,1.607
		c0.072,11.244,0.085,22.489,0.115,33.733c3.813-0.314,7.625-0.628,11.438-0.942l0,0c0.022-10.926,0.027-21.852,0.095-32.778
		C337.445,55.767,337.072,55.364,335.82,55.4z"/>
	<path fill="#1A2C5E" d="M199.217,90.845c-0.181-6.523-0.068-13.056-0.055-19.585c0.002-0.869,0.099-1.739,0.152-2.607
		c-0.272-4.914-1.11-5.692-6.127-5.7c-1.197-0.001-2.397,0.055-3.589-0.016c-1.098-0.065-1.561,0.262-1.552,1.454
		c0.068,9.57,0.084,19.142,0.116,28.713c2.694,0.149,5.4,0.18,8.076,0.485C198.47,93.845,199.284,93.286,199.217,90.845z"/>
	<path fill="#1A2C5E" d="M188.148,31.152c-0.028,5.024-0.071,10.046-0.081,15.07c-0.014,7.21-0.003,7.21,7.24,6.49
		c2.648-0.264,3.696-1.201,3.916-3.913c0.401-4.932,0.292-9.876,0.068-14.814c-0.06-1.321,0.129-2.74-0.97-3.811
		C194.93,30.5,191.54,30.827,188.148,31.152L188.148,31.152z"/>
	<path fill="#1A2C5E" d="M325.906,29.23C325.906,29.23,325.906,29.23,325.906,29.23c-0.031,4.532-0.023,9.064-0.118,13.595
		c-0.027,1.285,0.438,1.634,1.653,1.604c2.782-0.069,5.569-0.071,8.352,0.001c1.208,0.031,1.675-0.291,1.646-1.587
		c-0.098-4.372-0.079-8.747-0.104-13.121C333.543,29.141,329.722,29.261,325.906,29.23z"/>
	<path fill="#803694" d="M175.104,32.25l-0.179-0.002c0,0-0.17,0.039-0.172,0.041c0,0,0,0,0,0
		c0.001,16.469,0.002,32.937,0.004,49.406c0,3.038-0.022,6.076,0.01,9.113c0.013,1.147-0.116,1.738-1.598,1.482
		c-1.634-0.282-3.357-0.236-5.022-0.102c-1.969,0.159-2.595-0.498-2.576-2.527c0.097-10.631,0.056-21.265,0.025-31.897
		c-0.002-0.825,0.39-1.762-0.391-2.483c0.005,2.875,0.009,5.749,0.016,8.623c0.027,12.535,0.091,25.069,0.042,37.603
		c-0.007,1.803,0.436,2.433,2.275,2.157c1.967-0.294,3.968-0.415,5.958-0.48c1.223-0.04,1.666-0.472,1.642-1.717
		c-0.059-3.032,0.021-6.066,0.019-9.101C175.143,72.329,175.122,52.29,175.104,32.25z"/>
	<path fill="#14A89E" d="M165.367,43.958c0-0.005,0.001-0.011,0.002-0.016c0.447-3.007,0.177-6.033,0.138-9.049
		c-0.018-1.405,0.459-2.107,1.85-2.184c2.465-0.138,4.93-0.279,7.395-0.42h0.001c0.002-0.002,0.172-0.041,0.172-0.041l0.179,0.002
		c0.002-2.948-0.004-5.896,0.014-8.844c0.005-0.856-0.042-1.682-1.155-1.69c-3.509-0.028-7.018-0.01-10.552-0.01
		c1.307,2.713,1.73,5.766,1.773,8.892C165.245,35.051,165.307,39.502,165.367,43.958c0,0.001,0,0.003,0,0.004
		C165.366,43.961,165.366,43.959,165.367,43.958z"/>
	<path fill="#7F3593" d="M337.335,29.723c0.025-2.952,0.002-5.905,0.099-8.854c0.043-1.313-0.269-1.873-1.725-1.719
		c-2.774,0.292-5.564,0.453-8.352,0.595c-1.259,0.064-1.604,0.651-1.56,1.831c0.094,2.549,0.079,5.102,0.108,7.654c0,0,0,0,0,0
		C329.722,29.261,333.543,29.141,337.335,29.723z"/>
	<path fill="#13A79D" d="M325.904,90.743c-0.029,2.469-0.005,4.939-0.108,7.404c-0.053,1.266,0.442,1.636,1.649,1.665
		c2.784,0.069,5.569,0.229,8.348,0.433c1.257,0.093,1.683-0.335,1.642-1.601c-0.096-2.945-0.069-5.896-0.092-8.844l0,0
		C333.529,90.115,329.717,90.429,325.904,90.743z"/>
	<path fill="#803593" d="M199.314,68.653c-0.053,0.868-0.15,1.738-0.152,2.607c-0.013,6.529-0.126,13.062,0.055,19.585
		c0.067,2.441-0.747,3-2.98,2.744c-2.675-0.306-5.382-0.336-8.076-0.485c-0.03,2.389-0.009,4.779-0.112,7.165
		c-0.056,1.307,0.456,1.651,1.685,1.531c2.536-0.248,5.079-0.494,7.623-0.542c1.677-0.032,2.148-0.662,2.141-2.295
		c-0.042-8.846,0.037-17.692,0.034-26.538C199.531,71.171,199.813,69.885,199.314,68.653
		C199.314,68.652,199.314,68.652,199.314,68.653z"/>
	<path fill="#803694" d="M310.51,28.281c1.576-0.077,2.028,0.514,2.023,2.069c-0.059,20.433-0.058,40.866-0.071,61.299
		c0.128,0.021,0.256,0.034,0.386,0.038c0.027-3.751,0.08-7.502,0.078-11.253c-0.014-19.003-0.067-38.007-0.022-57.011
		c0.005-1.874-0.43-2.6-2.372-2.291c-1.728,0.274-3.489,0.36-5.24,0.458c-3.258,0.184-3.252,0.161-2.543,3.228
		c0.233,1.009,0.416,2.029,0.621,3.044C305.734,28.265,308.123,28.398,310.51,28.281z"/>
	<path fill="#14A89E" d="M312.848,91.688c-0.13-0.004-0.258-0.017-0.386-0.038c-1.915,0.705-3.991,0.193-5.885,0.667
		c-2.52,0.63-2.888-0.27-2.857-2.559c0.09-6.809,0.295-13.623-0.106-20.434c-0.001-0.012-0.001-0.023-0.002-0.035
		c0,0,0-0.001,0-0.002c0,0.001,0,0.002,0,0.002c-0.429,9.401,0.221,18.823-0.442,28.221c-0.078,1.108,0.519,1.15,1.29,1.18
		c1.993,0.076,4,0.044,5.974,0.282c2.063,0.249,2.666-0.534,2.461-2.499C312.729,94.894,312.853,93.284,312.848,91.688z"/>
	<path fill="#14A79E" d="M150.655,28.434c-5.086-2.299-8.992,0.225-9.035,5.759c-0.001,0.156,0.049,0.311,0.076,0.466
		c0.001,0,0.001,0,0.002,0c3.673-0.209,7.347-0.418,11.021-0.626C152.61,31.949,153.146,29.559,150.655,28.434z"/>
	<path fill="#7F3593" d="M141.703,90.726c-0.113,5.149,0.969,6.367,5.928,6.285c6.544-0.109,5.45,0.988,5.399-5.785h0
		C149.248,91.217,145.459,91.332,141.703,90.726z"/>
	<path fill="#14A79E" d="M222.038,24.083c-3.688-0.195-7.225-0.382-10.867-0.574c0.381,2.031,0.727,3.875,1.072,5.72l0,0
		c2.995-0.298,5.989-0.596,8.984-0.895C221.491,26.954,221.754,25.573,222.038,24.083z"/>
	<path fill="#803694" d="M212.635,94.119c-0.03,0.315-0.082,0.63-0.086,0.944c-0.069,5.146-0.068,5.146,5.038,4.514
		c3.955-0.489,3.955-0.489,3.594-5.021l0,0C218.322,94.606,215.466,94.601,212.635,94.119z"/>
	<path fill="#15A69D" d="M280.378,94.521c0.017,1.121,0.752,1.715,1.655,2.106c1.598,0.692,3.301,0.388,4.958,0.377
		c2.21-0.013,3.604-1.06,3.778-3.398v-0.001C287.306,93.909,283.842,94.215,280.378,94.521z"/>
	<path fill="#15A59C" d="M188.148,31.152c3.391-0.326,6.782-0.652,10.173-0.978c-0.487-0.993-1.463-1.223-2.382-1.281
		c-1.887-0.119-3.796,0.05-5.675-0.13C188.292,28.575,187.691,29.325,188.148,31.152L188.148,31.152z"/>
	<path fill="#7D3892" d="M244.321,95.601L244.321,95.601C244.322,95.6,244.322,95.6,244.321,95.601L244.321,95.601
		c-3.067-0.023-6.136-0.046-9.204-0.067C237.168,97.669,242.045,97.704,244.321,95.601z"/>
	<path fill="#834398" d="M266.356,24.719c-2.21,0.287-4.44,0.526-6.665,0.571c-1.96,0.04-2.446,0.735-1.553,2.45
		c0,0,0-0.001,0-0.001c-0.012-1.281,0.348-2.041,1.909-1.875c2.422,0.258,4.864,0.325,7.299,0.472
		C267.827,25.303,268.104,24.493,266.356,24.719z"/>
	<path fill="#36A9A4" d="M258.288,96.068c2.623,0.987,5.385,0.726,8.091,0.788c1.261,0.029,0.839-0.99,0.569-1.732
		c0,0-0.001-0.001-0.001-0.002C264.148,96.232,261.197,95.962,258.288,96.068z"/>
	<path fill="#1A2C5E" d="M352.7,88.212c6.902-0.576,13.801-1.204,20.705-1.757c8.894-0.713,17.796-1.332,26.688-2.061
		c14.685-1.203,29.363-2.491,44.049-3.686c10.955-0.891,21.919-1.665,32.876-2.538c15.639-1.246,31.279-2.477,46.906-3.86
		c2.598-0.23,5.267-0.011,7.808-0.832c0.824-5.939,0.715-11.935,1.055-17.902c0.276-4.853,0.53-9.707,0.854-14.558
		c0.095-1.409-0.085-2.146-1.832-2.217c-8.682-0.351-17.357-0.872-26.037-1.299c-10.195-0.502-20.394-0.965-30.59-1.451
		c-9.957-0.474-19.914-0.959-29.871-1.432c-10.438-0.496-20.877-0.978-31.314-1.472c-9.879-0.467-19.759-0.943-29.638-1.412
		c-10.277-0.488-20.559-0.912-30.83-1.506c-2.275-0.131-2.783,0.583-2.774,2.755c0.081,18.396,0.045,36.793,0.044,55.19v0.001
		C351.433,88.192,352.072,88.265,352.7,88.212z M425.972,48.565c0.798-1.083,4.194-1.662,5.854-0.919
		c1.915,0.856,1.791,2.635,1.818,4.32c0.015,0.971-0.688,0.85-1.328,0.921c-1.07,0.12-1.421-0.328-1.327-1.358
		c0.11-1.211-0.496-1.756-1.72-1.688c-1.313,0.074-1.212,1.009-1.222,1.894c-0.004,0.32-0.001,0.639-0.001,1.264
		c-0.518,1.83,0.574,2.916,2.398,3.75c1.248,0.571,2.938,0.995,3.068,2.705c0.186,2.442,0.77,5.047-0.477,7.291
		c-1.128,2.032-3.368,1.527-5.224,1.261c-1.782-0.256-2.358-1.717-2.482-3.354c-0.05-0.655-0.081-1.39,0.894-1.276
		c0.671,0.078,1.77-0.523,1.806,0.843c0.03,1.15,0.635,1.596,1.674,1.51c1.161-0.096,1.214-0.961,1.322-1.905
		c0.294-2.561-0.323-4.352-2.99-5.458C425.363,57.259,424.211,50.953,425.972,48.565z M421.979,68.16
		c-5.299,0.217-5.299,0.219-5.299-5.085c0-1.757,0-3.516,0-5.273c0-2.956,0.043-5.913-0.021-8.868
		c-0.025-1.14,0.337-1.583,1.496-1.518c1.354,0.077,2.716,0.038,4.073,0.01c0.817-0.016,1.395,0.104,1.36,1.146
		c-0.029,0.884-0.318,1.248-1.26,1.302c-0.96,0.056-2.523-0.623-2.771,0.485c-0.391,1.743-0.245,3.664-0.002,5.466
		c0.105,0.787,1.249,0.337,1.916,0.386c0.813,0.059,1.597-0.084,1.642,1.149c0.043,1.146-0.538,1.431-1.462,1.265
		c-2.057-0.37-2.459,0.688-2.255,2.419c0.084,0.709,0.11,1.452-0.005,2.152c-0.34,2.076,0.396,2.95,2.545,2.572
		c0.917-0.161,1.712-0.088,1.671,1.284C423.568,68.355,422.754,68.128,421.979,68.16z M389.237,49.217
		c-0.002-0.944-0.224-1.887,1.348-1.831c1.323,0.047,1.335,0.742,1.332,1.69c-0.015,5.813-0.013,11.625-0.002,17.438
		c0.002,0.92,0.06,1.65-1.298,1.696c-1.535,0.052-1.392-0.81-1.385-1.793c0.02-2.866,0.007-5.733,0.007-8.599
		C389.239,54.95,389.243,52.083,389.237,49.217z M412.441,68.197c-1.541-0.028-1.096-1.049-1.104-1.81
		c-0.033-3.166-0.015-6.332-0.297-9.562c-0.426,1.98-0.813,3.969-1.297,5.935c-0.167,0.679-0.063,1.613-1.321,1.591
		c-1.176-0.021-1.223-0.793-1.387-1.558c-0.368-1.713-0.715-3.431-1.071-5.146c-0.883,2.358,0.023,4.83-0.456,7.213
		c-0.007,0.718-0.066,1.441-0.009,2.155c0.085,1.039-0.491,1.18-1.322,1.151c-0.741-0.025-1.43,0.063-1.425-1.052
		c0.027-6.228,0.021-12.456,0.007-18.683c-0.002-1.144,0.794-0.946,1.491-1c0.998-0.078,1.61,0.155,1.827,1.322
		c0.62,3.34,1.372,6.655,2.503,10.047c0.586-2.672,1.172-5.344,1.756-8.016c0.153-0.7,0.4-1.397,0.431-2.104
		c0.066-1.528,1.148-1.187,2.062-1.249c1.265-0.085,1.147,0.782,1.147,1.589c0,5.829-0.024,11.657,0.021,17.485
		C414.006,67.671,413.788,68.221,412.441,68.197z M399.338,65.776c0.91-0.128,1.948-0.292,1.861,1.317
		c-0.084,1.552-1.158,1.023-1.897,1.044c-4.776,0.134-4.777,0.116-4.777-4.586c0-1.918,0-3.836,0-5.754
		c0-2.958,0.041-5.916-0.021-8.871c-0.023-1.093,0.225-1.546,1.437-1.532c1.251,0.014,1.413,0.582,1.406,1.619
		c-0.035,4.875,0.05,9.751-0.053,14.624C397.26,65.237,397.564,66.027,399.338,65.776z M380.351,57.875
		c0-2.876,0.084-5.756-0.034-8.627c-0.063-1.533,0.483-1.969,1.924-1.841c1.269,0.112,2.555,0.034,3.833,0.023
		c0.728-0.006,1.218,0.148,1.195,1.055c-0.021,0.826-0.138,1.418-1.16,1.362c-0.717-0.039-1.438,0.009-2.157-0.001
		c-0.544-0.008-0.929,0.14-0.928,0.774c0.002,1.598-0.055,3.198,0.016,4.792c0.06,1.355,1.174,0.703,1.834,0.792
		c0.906,0.121,1.979-0.26,1.924,1.343c-0.052,1.528-1.147,1.14-1.88,1.057c-1.672-0.191-2.024,0.548-1.931,2.041
		c0.114,1.831,0.052,3.674,0.017,5.511c-0.018,0.927,0.465,2.103-1.358,2.047c-1.84-0.056-1.255-1.294-1.273-2.179
		C380.314,63.309,380.351,60.592,380.351,57.875z"/>
	<path fill="#FCFCFC" d="M413.977,49.02c0-0.807,0.117-1.674-1.147-1.589c-0.913,0.062-1.995-0.28-2.062,1.249
		c-0.03,0.707-0.277,1.403-0.431,2.104c-0.584,2.672-1.17,5.344-1.756,8.016c-1.131-3.392-1.883-6.707-2.503-10.047
		c-0.217-1.167-0.829-1.4-1.827-1.322c-0.697,0.055-1.493-0.143-1.491,1c0.014,6.227,0.021,12.455-0.007,18.683
		c-0.005,1.115,0.684,1.027,1.425,1.052c0.831,0.029,1.407-0.113,1.322-1.151c-0.058-0.713,0.002-1.437,0.009-2.155
		c-0.672-3.168-0.29-6.366-0.052-9.621c0.17,0.803,0.339,1.605,0.508,2.408c0.356,1.716,0.703,3.434,1.071,5.146
		c0.164,0.765,0.211,1.537,1.387,1.558c1.259,0.022,1.154-0.912,1.321-1.591c0.483-1.966,0.871-3.955,1.297-5.935
		c0.282,3.23,0.264,6.396,0.297,9.562c0.008,0.761-0.438,1.782,1.104,1.81c1.347,0.024,1.564-0.525,1.556-1.692
		C413.952,60.677,413.977,54.848,413.977,49.02z"/>
	<path fill="#FDFDFD" d="M428.036,58.368c2.667,1.105,3.284,2.896,2.99,5.458c-0.108,0.943-0.161,1.809-1.322,1.905
		c-1.039,0.085-1.644-0.36-1.674-1.51c-0.036-1.367-1.135-0.765-1.806-0.843c-0.975-0.114-0.943,0.621-0.894,1.276
		c0.124,1.637,0.7,3.097,2.482,3.354c1.855,0.267,4.096,0.771,5.224-1.261c1.246-2.243,0.662-4.849,0.477-7.291
		c-0.13-1.71-1.82-2.134-3.068-2.705c-1.824-0.835-2.916-1.921-2.398-3.75c0-0.625-0.003-0.944,0.001-1.264
		c0.01-0.885-0.092-1.82,1.222-1.894c1.224-0.068,1.83,0.476,1.72,1.688c-0.094,1.03,0.257,1.478,1.327,1.358
		c0.64-0.072,1.343,0.049,1.328-0.921c-0.027-1.685,0.097-3.463-1.818-4.32c-1.66-0.742-5.057-0.164-5.854,0.919
		C424.211,50.953,425.363,57.259,428.036,58.368z"/>
	<path fill="#FBFBFC" d="M421.937,65.769c-2.148,0.377-2.885-0.496-2.545-2.572c0.115-0.7,0.089-1.443,0.005-2.152
		c-0.204-1.73,0.198-2.789,2.255-2.419c0.924,0.167,1.505-0.118,1.462-1.265c-0.045-1.234-0.829-1.09-1.642-1.149
		c-0.667-0.049-1.811,0.4-1.916-0.386c-0.243-1.802-0.389-3.723,0.002-5.466c0.248-1.107,1.812-0.429,2.771-0.485
		c0.941-0.054,1.23-0.418,1.26-1.302c0.034-1.042-0.543-1.162-1.36-1.146c-1.357,0.027-2.72,0.066-4.073-0.01
		c-1.159-0.065-1.521,0.378-1.496,1.518c0.063,2.955,0.021,5.912,0.021,8.868c0,1.758,0,3.516,0,5.273c0,5.304,0,5.302,5.299,5.085
		c0.775-0.032,1.59,0.195,1.629-1.108C423.648,65.681,422.854,65.607,421.937,65.769z"/>
	<path fill="#F9F9FA" d="M381.645,68.204c1.823,0.055,1.341-1.12,1.358-2.047c0.035-1.837,0.098-3.68-0.017-5.511
		c-0.094-1.493,0.259-2.232,1.931-2.041c0.732,0.083,1.828,0.471,1.88-1.057c0.055-1.603-1.018-1.222-1.924-1.343
		c-0.66-0.088-1.774,0.564-1.834-0.792c-0.07-1.594-0.014-3.194-0.016-4.792c-0.001-0.634,0.384-0.782,0.928-0.774
		c0.719,0.01,1.44-0.038,2.157,0.001c1.022,0.056,1.14-0.536,1.16-1.362c0.022-0.907-0.468-1.061-1.195-1.055
		c-1.278,0.011-2.564,0.089-3.833-0.023c-1.44-0.127-1.987,0.309-1.924,1.841c0.118,2.871,0.034,5.751,0.034,8.627
		c0,2.717-0.036,5.434,0.021,8.149C380.39,66.91,379.805,68.147,381.645,68.204z"/>
	<path fill="#FCFCFC" d="M397.294,63.638c0.103-4.873,0.018-9.749,0.053-14.624c0.007-1.037-0.155-1.604-1.406-1.619
		c-1.212-0.014-1.46,0.439-1.437,1.532c0.062,2.956,0.021,5.914,0.021,8.871c0,1.918,0,3.836,0,5.754
		c0,4.702,0.001,4.72,4.777,4.586c0.739-0.021,1.813,0.508,1.897-1.044c0.087-1.609-0.951-1.446-1.861-1.317
		C397.564,66.027,397.26,65.237,397.294,63.638z"/>
	<path fill="#F6F7F9" d="M390.617,68.209c1.357-0.046,1.3-0.775,1.298-1.696c-0.011-5.813-0.013-11.625,0.002-17.438
		c0.003-0.948-0.009-1.643-1.332-1.69c-1.571-0.056-1.35,0.887-1.348,1.831c0.006,2.867,0.002,5.733,0.002,8.6
		c0,2.866,0.013,5.733-0.007,8.599C389.226,67.399,389.082,68.261,390.617,68.209z"/>
	<path fill="#636F91" d="M405.509,64.859c0.479-2.384-0.427-4.855,0.456-7.213c-0.169-0.803-0.338-1.605-0.508-2.408
		C405.219,58.493,404.837,61.69,405.509,64.859z"/>
</g>
</svg>
